<?xml version="1.0" encoding="iso-8859-1"?>
<!-- Uploaded to: SVG Repo, www.svgrepo.com, Generator: SVG Repo Mixer Tools -->
<!DOCTYPE svg PUBLIC "-//W3C//DTD SVG 1.1//EN" "http://www.w3.org/Graphics/SVG/1.1/DTD/svg11.dtd">
<svg fill="#000000" height="800px" width="800px" version="1.1" id="Capa_1" xmlns="http://www.w3.org/2000/svg" xmlns:xlink="http://www.w3.org/1999/xlink" 
	 viewBox="0 0 60 60" xml:space="preserve">
<g>
	<path d="M40.949,12h-2.512c-2.483,0-4.639,1.683-5.241,4.093L31.72,22H52.28l-1.477-5.907C50.201,13.683,48.046,12,45.563,12
		h-2.613C42.436,5.299,36.83,0,30,0h-7C13.075,0,5,8.075,5,18v36H0v6h12v-6H7V18C7,9.178,14.178,2,23,2h7
		C35.728,2,40.442,6.402,40.949,12z"/>
	<path d="M57.486,27h-2.973C53.128,27,52,28.128,52,29.514v0.515c-3.355,0.284-6,3.101-6,6.528V39H34.1c-1.709,0-3.1,1.391-3.1,3.1
		V57h2v3h6v-3h13v3h6v-3h2V41v-2v-9.486C60,28.128,58.872,27,57.486,27z M48,36.557c0-2.324,1.749-4.247,4-4.522V39h-4V36.557z"/>
</g>
</svg>