<?xml version="1.0" encoding="iso-8859-1"?>
<!-- Uploaded to: SVG Repo, www.svgrepo.com, Generator: SVG Repo Mixer Tools -->
<svg fill="#000000" height="800px" width="800px" version="1.1" id="Capa_1" xmlns="http://www.w3.org/2000/svg" xmlns:xlink="http://www.w3.org/1999/xlink" 
	 viewBox="0 0 51.974 51.974" xml:space="preserve">
<g>
	<path d="M36.987,33.974h-10v-16h10c0.371,0,0.712-0.206,0.885-0.535c0.173-0.329,0.149-0.726-0.061-1.032l-11-16
		c-0.373-0.543-1.275-0.543-1.648,0l-11,16c-0.21,0.306-0.233,0.703-0.061,1.032c0.173,0.329,0.514,0.535,0.885,0.535h10v16h-10
		c-0.371,0-0.712,0.206-0.885,0.535c-0.173,0.329-0.149,0.726,0.061,1.032l11,16c0.187,0.271,0.495,0.434,0.824,0.434
		s0.638-0.162,0.824-0.434l11-16c0.21-0.306,0.233-0.703,0.061-1.032C37.699,34.179,37.358,33.974,36.987,33.974z M26.987,15.974
		V4.193l8.099,11.78L26.987,15.974L26.987,15.974z M16.888,15.974l8.099-11.78v11.78H16.888z M24.987,35.974v11.78l-8.099-11.78
		H24.987z M26.987,47.754v-11.78h8.099L26.987,47.754z"/>
</g>
</svg>